<mxfile host="app.diagrams.net" modified="2023-12-18T02:07:41.144Z" agent="Mozilla/5.0 (X11; Linux x86_64) AppleWebKit/537.36 (KHTML, like Gecko) Chrome/120.0.0.0 Safari/537.36" etag="jCut5Qm2_CL4JNIodsAh" version="22.1.11" type="device">
  <diagram name="ページ1" id="GxvMC07JSBD0g9FRBrPE">
    <mxGraphModel dx="875" dy="894" grid="1" gridSize="10" guides="1" tooltips="1" connect="1" arrows="1" fold="1" page="0" pageScale="1" pageWidth="827" pageHeight="1169" math="0" shadow="0">
      <root>
        <mxCell id="0" />
        <mxCell id="1" parent="0" />
        <mxCell id="pKsWQ1zIJ12ollDorW9q-1" value="田中さんから斉藤さんへの友達申請：友達申請" style="swimlane;fontStyle=0;childLayout=stackLayout;horizontal=1;startSize=26;fillColor=none;horizontalStack=0;resizeParent=1;resizeParentMax=0;resizeLast=0;collapsible=1;marginBottom=0;whiteSpace=wrap;html=1;" vertex="1" parent="1">
          <mxGeometry x="250" y="-40" width="260" height="130" as="geometry" />
        </mxCell>
        <mxCell id="pKsWQ1zIJ12ollDorW9q-18" value="申請日時 =&amp;nbsp;2024年1月13日10時30分" style="text;strokeColor=none;fillColor=none;align=left;verticalAlign=top;spacingLeft=4;spacingRight=4;overflow=hidden;rotatable=0;points=[[0,0.5],[1,0.5]];portConstraint=eastwest;whiteSpace=wrap;html=1;" vertex="1" parent="pKsWQ1zIJ12ollDorW9q-1">
          <mxGeometry y="26" width="260" height="26" as="geometry" />
        </mxCell>
        <mxCell id="pKsWQ1zIJ12ollDorW9q-19" value="申請状態 = 待機中" style="text;strokeColor=none;fillColor=none;align=left;verticalAlign=top;spacingLeft=4;spacingRight=4;overflow=hidden;rotatable=0;points=[[0,0.5],[1,0.5]];portConstraint=eastwest;whiteSpace=wrap;html=1;" vertex="1" parent="pKsWQ1zIJ12ollDorW9q-1">
          <mxGeometry y="52" width="260" height="26" as="geometry" />
        </mxCell>
        <mxCell id="pKsWQ1zIJ12ollDorW9q-29" value="友達になった日時 = null" style="text;strokeColor=none;fillColor=none;align=left;verticalAlign=top;spacingLeft=4;spacingRight=4;overflow=hidden;rotatable=0;points=[[0,0.5],[1,0.5]];portConstraint=eastwest;whiteSpace=wrap;html=1;" vertex="1" parent="pKsWQ1zIJ12ollDorW9q-1">
          <mxGeometry y="78" width="260" height="26" as="geometry" />
        </mxCell>
        <mxCell id="pKsWQ1zIJ12ollDorW9q-28" value="承認状態 = null" style="text;strokeColor=none;fillColor=none;align=left;verticalAlign=top;spacingLeft=4;spacingRight=4;overflow=hidden;rotatable=0;points=[[0,0.5],[1,0.5]];portConstraint=eastwest;whiteSpace=wrap;html=1;" vertex="1" parent="pKsWQ1zIJ12ollDorW9q-1">
          <mxGeometry y="104" width="260" height="26" as="geometry" />
        </mxCell>
        <mxCell id="pKsWQ1zIJ12ollDorW9q-5" value="田中：ユーザ" style="swimlane;fontStyle=0;childLayout=stackLayout;horizontal=1;startSize=26;fillColor=none;horizontalStack=0;resizeParent=1;resizeParentMax=0;resizeLast=0;collapsible=1;marginBottom=0;whiteSpace=wrap;html=1;" vertex="1" parent="1">
          <mxGeometry x="-90" y="-239" width="270" height="158" as="geometry" />
        </mxCell>
        <mxCell id="pKsWQ1zIJ12ollDorW9q-6" value="氏名 = 田中次郎" style="text;strokeColor=none;fillColor=none;align=left;verticalAlign=top;spacingLeft=4;spacingRight=4;overflow=hidden;rotatable=0;points=[[0,0.5],[1,0.5]];portConstraint=eastwest;whiteSpace=wrap;html=1;" vertex="1" parent="pKsWQ1zIJ12ollDorW9q-5">
          <mxGeometry y="26" width="270" height="26" as="geometry" />
        </mxCell>
        <mxCell id="pKsWQ1zIJ12ollDorW9q-7" value="メールアドレス = bbb@gmail.com" style="text;strokeColor=none;fillColor=none;align=left;verticalAlign=top;spacingLeft=4;spacingRight=4;overflow=hidden;rotatable=0;points=[[0,0.5],[1,0.5]];portConstraint=eastwest;whiteSpace=wrap;html=1;" vertex="1" parent="pKsWQ1zIJ12ollDorW9q-5">
          <mxGeometry y="52" width="270" height="28" as="geometry" />
        </mxCell>
        <mxCell id="pKsWQ1zIJ12ollDorW9q-8" value="パスワード = abcd" style="text;strokeColor=none;fillColor=none;align=left;verticalAlign=top;spacingLeft=4;spacingRight=4;overflow=hidden;rotatable=0;points=[[0,0.5],[1,0.5]];portConstraint=eastwest;whiteSpace=wrap;html=1;" vertex="1" parent="pKsWQ1zIJ12ollDorW9q-5">
          <mxGeometry y="80" width="270" height="26" as="geometry" />
        </mxCell>
        <mxCell id="pKsWQ1zIJ12ollDorW9q-9" value="アカウント登録日 = 2023年12月4日" style="text;strokeColor=none;fillColor=none;align=left;verticalAlign=top;spacingLeft=4;spacingRight=4;overflow=hidden;rotatable=0;points=[[0,0.5],[1,0.5]];portConstraint=eastwest;whiteSpace=wrap;html=1;" vertex="1" parent="pKsWQ1zIJ12ollDorW9q-5">
          <mxGeometry y="106" width="270" height="26" as="geometry" />
        </mxCell>
        <mxCell id="pKsWQ1zIJ12ollDorW9q-10" value="アカウント変更日 = 2024年1月4日" style="text;strokeColor=none;fillColor=none;align=left;verticalAlign=top;spacingLeft=4;spacingRight=4;overflow=hidden;rotatable=0;points=[[0,0.5],[1,0.5]];portConstraint=eastwest;whiteSpace=wrap;html=1;" vertex="1" parent="pKsWQ1zIJ12ollDorW9q-5">
          <mxGeometry y="132" width="270" height="26" as="geometry" />
        </mxCell>
        <mxCell id="pKsWQ1zIJ12ollDorW9q-11" value="斉藤：ユーザ" style="swimlane;fontStyle=0;childLayout=stackLayout;horizontal=1;startSize=26;fillColor=none;horizontalStack=0;resizeParent=1;resizeParentMax=0;resizeLast=0;collapsible=1;marginBottom=0;whiteSpace=wrap;html=1;" vertex="1" parent="1">
          <mxGeometry x="590" y="-239" width="270" height="158" as="geometry" />
        </mxCell>
        <mxCell id="pKsWQ1zIJ12ollDorW9q-12" value="氏名 = 斉藤花子" style="text;strokeColor=none;fillColor=none;align=left;verticalAlign=top;spacingLeft=4;spacingRight=4;overflow=hidden;rotatable=0;points=[[0,0.5],[1,0.5]];portConstraint=eastwest;whiteSpace=wrap;html=1;" vertex="1" parent="pKsWQ1zIJ12ollDorW9q-11">
          <mxGeometry y="26" width="270" height="26" as="geometry" />
        </mxCell>
        <mxCell id="pKsWQ1zIJ12ollDorW9q-13" value="メールアドレス = ccc@gmail.com" style="text;strokeColor=none;fillColor=none;align=left;verticalAlign=top;spacingLeft=4;spacingRight=4;overflow=hidden;rotatable=0;points=[[0,0.5],[1,0.5]];portConstraint=eastwest;whiteSpace=wrap;html=1;" vertex="1" parent="pKsWQ1zIJ12ollDorW9q-11">
          <mxGeometry y="52" width="270" height="28" as="geometry" />
        </mxCell>
        <mxCell id="pKsWQ1zIJ12ollDorW9q-14" value="パスワード = aaaa" style="text;strokeColor=none;fillColor=none;align=left;verticalAlign=top;spacingLeft=4;spacingRight=4;overflow=hidden;rotatable=0;points=[[0,0.5],[1,0.5]];portConstraint=eastwest;whiteSpace=wrap;html=1;" vertex="1" parent="pKsWQ1zIJ12ollDorW9q-11">
          <mxGeometry y="80" width="270" height="26" as="geometry" />
        </mxCell>
        <mxCell id="pKsWQ1zIJ12ollDorW9q-15" value="アカウント登録日 = 2023年12月5日" style="text;strokeColor=none;fillColor=none;align=left;verticalAlign=top;spacingLeft=4;spacingRight=4;overflow=hidden;rotatable=0;points=[[0,0.5],[1,0.5]];portConstraint=eastwest;whiteSpace=wrap;html=1;" vertex="1" parent="pKsWQ1zIJ12ollDorW9q-11">
          <mxGeometry y="106" width="270" height="26" as="geometry" />
        </mxCell>
        <mxCell id="pKsWQ1zIJ12ollDorW9q-16" value="アカウント変更日 = 2024年1月5日" style="text;strokeColor=none;fillColor=none;align=left;verticalAlign=top;spacingLeft=4;spacingRight=4;overflow=hidden;rotatable=0;points=[[0,0.5],[1,0.5]];portConstraint=eastwest;whiteSpace=wrap;html=1;" vertex="1" parent="pKsWQ1zIJ12ollDorW9q-11">
          <mxGeometry y="132" width="270" height="26" as="geometry" />
        </mxCell>
        <mxCell id="pKsWQ1zIJ12ollDorW9q-25" style="edgeStyle=none;curved=1;rounded=0;orthogonalLoop=1;jettySize=auto;html=1;exitX=1;exitY=0.5;exitDx=0;exitDy=0;entryX=0;entryY=0.5;entryDx=0;entryDy=0;fontSize=12;startSize=8;endSize=8;endArrow=none;endFill=0;" edge="1" parent="1" source="pKsWQ1zIJ12ollDorW9q-8" target="pKsWQ1zIJ12ollDorW9q-18">
          <mxGeometry relative="1" as="geometry" />
        </mxCell>
        <mxCell id="pKsWQ1zIJ12ollDorW9q-27" style="edgeStyle=none;curved=1;rounded=0;orthogonalLoop=1;jettySize=auto;html=1;exitX=1;exitY=0.5;exitDx=0;exitDy=0;entryX=-0.004;entryY=0.344;entryDx=0;entryDy=0;entryPerimeter=0;fontSize=12;startSize=8;endSize=8;endArrow=none;endFill=0;" edge="1" parent="1" source="pKsWQ1zIJ12ollDorW9q-18" target="pKsWQ1zIJ12ollDorW9q-14">
          <mxGeometry relative="1" as="geometry" />
        </mxCell>
      </root>
    </mxGraphModel>
  </diagram>
</mxfile>
